<svg version="1.1" id="Layer_1" xmlns="http://www.w3.org/2000/svg" xmlns:xlink="http://www.w3.org/1999/xlink" x="0px" y="0px"
	 width="100%" viewBox="0 0 4167 1875" enable-background="new 0 0 4167 1875" xml:space="preserve">
<path fill="#FFFFFF" opacity="1.000000" stroke="none" 
	d="
M3136.000000,1878.000000 
	C2090.666748,1878.000000 1046.333374,1878.000000 2.000000,1878.000000 
	C2.000000,1252.666626 2.000000,627.333313 2.000000,2.000000 
	C1391.333374,2.000000 2780.666748,2.000000 4170.000000,2.000000 
	C4170.000000,627.333313 4170.000000,1252.666626 4170.000000,1878.000000 
	C3825.666748,1878.000000 3481.333252,1878.000000 3136.000000,1878.000000 
M530.938904,1245.500732 
	C530.605164,1244.314575 530.271362,1243.128540 530.199341,1240.499512 
	C565.370117,1150.014160 600.540955,1059.528687 635.940857,968.453857 
	C632.409729,966.855042 629.798035,965.534180 627.087097,964.465149 
	C533.608032,927.604004 462.961884,865.680237 418.688538,774.759033 
	C417.977448,773.298645 416.687622,772.120117 414.326202,769.086365 
	C414.326202,774.988586 414.318085,778.578796 414.327393,782.169067 
	C414.561523,872.482849 414.960175,962.796631 415.000824,1053.110474 
	C415.099579,1272.439941 415.028625,1491.769531 415.061432,1711.098999 
	C415.061951,1714.610474 415.512543,1718.121948 415.799255,1722.306641 
	C420.123413,1722.306641 423.404846,1722.306641 426.686279,1722.306641 
	C574.350342,1722.306519 722.014526,1722.398315 869.678467,1722.254517 
	C918.329651,1722.207153 965.790894,1714.380493 1011.965454,1698.894531 
	C1223.109131,1628.081787 1358.068115,1410.463501 1311.929565,1181.649292 
	C1282.210938,1034.265503 1196.811768,928.050415 1062.889893,860.471680 
	C1059.715576,858.869812 1056.310913,857.724243 1053.511230,856.570923 
	C947.155029,970.538391 818.430664,1010.728455 666.784241,978.173035 
	C665.221802,981.077698 663.751404,983.654968 662.423523,986.303711 
	C644.220459,1022.613342 626.064087,1058.946411 607.842407,1095.246704 
	C582.604004,1145.525391 557.320129,1195.781128 530.938904,1245.500732 
M639.053162,932.034973 
	C669.222717,943.155090 700.409546,949.665588 732.418091,952.118896 
	C748.346252,953.339844 764.321411,954.233398 780.289612,954.547302 
	C791.559753,954.768860 803.083008,955.057312 814.100342,953.102173 
	C886.446228,940.263428 950.632568,909.800110 1003.237732,858.378174 
	C1084.475952,778.967285 1119.415649,681.834961 1108.333618,568.520691 
	C1103.933228,523.525330 1090.669556,481.157135 1068.892334,441.608307 
	C1000.968750,318.254669 867.625793,243.159042 716.381531,262.559784 
	C650.361389,271.028473 591.864319,297.175140 540.586853,339.871216 
	C433.077179,429.388855 391.776031,567.897461 427.302155,697.536621 
	C458.060059,809.775940 529.556213,887.625549 639.053162,932.034973 
M1940.774414,576.266357 
	C1939.770386,572.401917 1938.903931,568.495544 1937.741577,564.679321 
	C1920.696289,508.720184 1888.502808,464.698486 1836.217041,436.777588 
	C1810.314819,422.945557 1782.433105,415.906555 1753.241699,413.208923 
	C1718.515991,409.999847 1684.625610,413.188629 1652.143921,426.118652 
	C1613.880615,441.350159 1580.647705,463.218872 1559.772095,500.297913 
	C1559.558350,500.677612 1558.734985,500.714111 1557.684937,501.097534 
	C1557.684937,498.409119 1557.559937,495.875427 1557.704468,493.357208 
	C1559.001831,470.744019 1561.380981,448.138763 1561.494629,425.521393 
	C1561.940308,336.873108 1561.679565,248.221283 1561.656494,159.570770 
	C1561.655762,156.662399 1561.387085,153.754089 1561.199097,149.947617 
	C1525.906128,150.080368 1491.191650,149.740692 1456.592041,150.177704 
	C1456.592041,393.500824 1456.592041,635.359985 1456.592041,877.566895 
	C1491.065674,877.566895 1525.103516,877.566895 1559.479370,877.566895 
	C1560.661133,852.344971 1559.664429,827.719421 1562.281006,801.443115 
	C1583.105835,836.955872 1612.451538,859.188538 1647.593872,874.145386 
	C1686.269775,890.606140 1726.544556,891.765808 1767.276001,884.133728 
	C1867.981689,865.264221 1938.777588,784.090576 1948.095947,682.087036 
	C1951.307129,646.935913 1949.050293,612.236267 1940.774414,576.266357 
M3759.839600,1527.000000 
	C3760.012207,1491.335083 3759.602783,1455.689087 3755.984863,1420.163452 
	C3753.688232,1397.610229 3750.627441,1375.137573 3743.791748,1353.463501 
	C3727.902100,1303.083374 3695.245117,1270.218628 3642.852295,1258.589844 
	C3620.252197,1253.573608 3597.295898,1252.255615 3574.275635,1253.863525 
	C3513.747559,1258.091431 3467.603760,1286.150391 3436.233154,1338.243042 
	C3435.182861,1339.987061 3433.882812,1341.580688 3431.890381,1344.381226 
	C3431.890381,1339.383667 3431.767578,1336.054810 3431.909912,1332.737427 
	C3432.924805,1309.103271 3434.802246,1285.474854 3434.901123,1261.838257 
	C3435.265869,1174.512085 3435.054932,1087.183472 3435.015381,999.855774 
	C3435.014160,997.351868 3434.504639,994.848145 3434.248291,992.490784 
	C3408.822998,990.679626 3338.390625,991.469299 3331.223389,993.550720 
	C3331.223389,1235.410278 3331.223389,1477.238525 3331.223389,1719.178467 
	C3366.343262,1719.178467 3400.815918,1719.178467 3436.005127,1719.178467 
	C3436.005127,1714.931763 3436.005371,1711.321289 3436.005371,1707.710693 
	C3436.005371,1651.714355 3435.990723,1595.717896 3436.012451,1539.721558 
	C3436.019775,1521.057251 3435.575439,1502.372192 3436.290283,1483.733154 
	C3437.749023,1445.701294 3450.723145,1411.984009 3477.289062,1384.417725 
	C3503.963135,1356.739136 3536.205078,1341.689941 3575.545166,1343.908691 
	C3609.910645,1345.846924 3632.270752,1362.449829 3643.098633,1395.001221 
	C3644.355713,1398.780029 3645.351562,1402.664429 3646.196045,1406.558838 
	C3652.519043,1435.723999 3653.402344,1465.400391 3653.546387,1495.037476 
	C3653.893311,1566.364624 3653.653076,1637.694458 3653.677246,1709.023193 
	C3653.678467,1712.514404 3653.944336,1716.005615 3654.077637,1719.270996 
	C3689.848145,1719.270996 3724.376221,1719.270996 3759.839600,1719.270996 
	C3759.839600,1655.483887 3759.839600,1592.241943 3759.839600,1527.000000 
M2409.069336,475.983093 
	C2385.782959,449.964203 2356.537842,433.237396 2323.888428,422.175598 
	C2288.018066,410.022522 2251.259277,409.482269 2214.318848,415.905792 
	C2144.624268,428.024902 2092.681885,464.950653 2061.795898,528.958557 
	C2034.488647,585.549988 2030.036865,645.525208 2041.891968,706.546753 
	C2066.590576,833.678528 2186.073730,908.440674 2307.261230,883.657715 
	C2355.738525,873.744141 2395.098877,848.049622 2421.989990,805.302979 
	C2422.572510,804.377075 2423.495605,803.665344 2425.340332,801.706238 
	C2425.998535,828.161255 2426.614258,852.909485 2427.229736,877.640625 
	C2461.611328,877.640625 2494.737305,877.640625 2527.718994,877.640625 
	C2527.718994,726.189880 2527.718994,575.409180 2527.718994,424.655914 
	C2493.650146,424.655914 2460.204102,424.655914 2426.300293,424.655914 
	C2425.531006,448.569672 2425.644775,471.879608 2423.696289,495.939331 
	C2418.564209,488.872589 2414.277832,482.970001 2409.069336,475.983093 
M3519.375977,450.392487 
	C3526.797852,442.092682 3534.219971,433.792877 3543.003906,423.970123 
	C3537.579346,423.970123 3534.351562,423.970123 3531.123779,423.970123 
	C3494.463379,423.970123 3457.800537,424.181122 3421.144287,423.792816 
	C3413.770020,423.714752 3409.081543,425.930511 3404.297852,431.573822 
	C3351.505371,493.851074 3298.415039,555.875854 3245.377197,617.945251 
	C3243.582764,620.045166 3241.491943,621.891602 3238.794434,624.605591 
	C3241.303223,466.044952 3239.292480,308.981018 3240.140869,151.479431 
	C3205.475586,151.479431 3171.977539,151.479431 3138.353271,151.479431 
	C3138.353271,393.877228 3138.353271,635.689392 3138.353271,877.722534 
	C3172.670410,877.722534 3206.457031,877.722534 3241.038330,877.722534 
	C3241.038330,873.529236 3241.038574,869.916626 3241.038574,866.304016 
	C3241.038818,828.310486 3241.131348,790.316406 3240.938965,752.323853 
	C3240.910156,746.636902 3242.332275,742.281616 3246.315186,738.068665 
	C3262.567139,720.876709 3278.484131,703.368408 3294.578857,686.027100 
	C3296.262207,684.213074 3298.303955,682.731506 3300.564209,680.760132 
	C3302.065918,683.619263 3303.135010,685.651794 3304.200928,687.686218 
	C3312.541016,703.602844 3320.068115,720.013000 3329.373535,735.343872 
	C3357.020264,780.893250 3385.455566,825.963684 3413.319092,871.382935 
	C3416.501709,876.570862 3419.946777,878.488159 3425.996582,878.443787 
	C3462.655029,878.174683 3499.316406,878.319092 3535.976807,878.286926 
	C3538.081543,878.285095 3540.186035,877.946045 3543.457031,877.662964 
	C3485.728271,789.045227 3428.752441,701.583435 3371.806885,614.168274 
	C3421.172119,559.377808 3469.797607,505.408386 3519.375977,450.392487 
M1606.551392,1255.544800 
	C1600.621216,1256.390015 1594.647705,1257.005615 1588.768433,1258.119629 
	C1560.971558,1263.385864 1534.927856,1272.944458 1512.014648,1289.998169 
	C1490.116211,1306.296997 1475.338989,1327.425049 1468.773804,1354.057495 
	C1465.229736,1368.433594 1464.846558,1383.070190 1465.767090,1397.751831 
	C1467.730469,1429.066284 1479.701416,1455.641357 1503.196777,1476.842896 
	C1521.900146,1493.720215 1542.649414,1507.682495 1565.561890,1517.826050 
	C1590.163452,1528.717285 1615.627563,1537.642456 1640.479614,1547.991455 
	C1655.801392,1554.371704 1671.429565,1560.561768 1685.598999,1569.044312 
	C1711.749634,1584.699097 1710.050537,1621.096802 1682.733032,1634.725220 
	C1673.410889,1639.375854 1662.685547,1642.474854 1652.317139,1643.556274 
	C1597.215698,1649.303101 1545.719482,1638.342896 1498.829712,1608.034180 
	C1496.738892,1606.682861 1494.550903,1605.482056 1491.856934,1603.884277 
	C1479.832275,1632.272827 1468.192383,1659.752930 1456.415649,1687.556152 
	C1466.203979,1696.021484 1477.456665,1701.013916 1489.013672,1705.029663 
	C1549.629883,1726.091553 1611.670532,1735.425903 1675.678711,1725.867432 
	C1704.986328,1721.490967 1732.382324,1711.603149 1757.076782,1694.838867 
	C1774.561035,1682.969360 1788.550781,1667.936646 1796.851440,1648.429077 
	C1810.999268,1615.180176 1812.146729,1581.193970 1799.955078,1547.122314 
	C1791.295654,1522.921753 1773.802368,1505.748657 1753.278076,1491.311157 
	C1730.527344,1475.307739 1705.587402,1463.577393 1679.636597,1453.852783 
	C1658.466187,1445.919434 1637.129517,1438.397949 1616.184937,1429.908447 
	C1606.697998,1426.062988 1597.489014,1421.036621 1589.031006,1415.261475 
	C1575.701782,1406.160278 1571.180908,1392.358276 1572.580811,1376.786743 
	C1573.973389,1361.295532 1583.060059,1351.307495 1597.249390,1345.764038 
	C1601.257446,1344.197998 1605.390869,1342.763550 1609.597778,1341.925781 
	C1640.957397,1335.680542 1671.889038,1338.196045 1702.385498,1347.146973 
	C1718.384521,1351.842651 1733.304321,1358.905273 1746.728516,1369.982422 
	C1759.729614,1341.287476 1772.333252,1313.469849 1784.856812,1285.829102 
	C1757.808838,1263.689453 1673.774536,1247.231812 1606.551392,1255.544800 
M2564.580078,1240.973877 
	C2564.580078,1248.839844 2564.580078,1256.705688 2564.580078,1265.432861 
	C2537.368164,1265.432861 2511.501221,1265.432861 2485.213867,1265.432861 
	C2485.213867,1294.794434 2485.213867,1323.250732 2485.213867,1352.486816 
	C2511.731201,1352.486816 2537.625732,1352.486816 2564.580078,1352.486816 
	C2564.580078,1383.820312 2564.580078,1414.383667 2564.580078,1444.946899 
	C2564.580078,1475.276123 2564.580078,1505.605347 2564.580078,1535.934570 
	C2564.580078,1566.597168 2564.543213,1597.259644 2564.590332,1627.922241 
	C2564.637207,1658.409546 2564.375244,1688.903809 2564.765625,1719.387695 
	C2601.453613,1719.387695 2636.685791,1719.387695 2672.935547,1719.387695 
	C2672.935547,1597.118042 2672.935547,1475.275513 2672.935547,1352.198242 
	C2708.362793,1352.198242 2742.795898,1352.198242 2777.358154,1352.198242 
	C2777.358154,1322.772217 2777.358154,1294.588379 2777.358154,1265.345825 
	C2765.325195,1265.345825 2753.753662,1265.345703 2742.182129,1265.345703 
	C2730.850342,1265.345703 2719.516602,1265.466675 2708.187012,1265.312012 
	C2696.705811,1265.155518 2685.166748,1266.018555 2672.796875,1264.679199 
	C2672.796875,1194.885132 2672.796875,1126.067627 2672.796875,1056.243286 
	C2636.058838,1064.352417 2600.478516,1072.206055 2564.580078,1080.129883 
	C2564.580078,1133.705322 2564.580078,1186.342773 2564.580078,1240.973877 
M2066.170898,1441.000000 
	C2066.170898,1411.766235 2066.170898,1382.532593 2066.170898,1352.220459 
	C2101.659668,1352.220459 2136.121338,1352.220459 2170.956543,1352.220459 
	C2170.956543,1322.943237 2170.956543,1294.757568 2170.956543,1265.392334 
	C2136.059082,1265.392334 2101.594238,1265.392334 2066.069824,1265.392334 
	C2066.069824,1195.124146 2066.069824,1126.025757 2066.069824,1056.248047 
	C2029.301392,1064.373535 1993.716797,1072.237427 1957.997681,1080.130981 
	C1957.997681,1093.680786 1957.997681,1105.996094 1957.997681,1118.311279 
	C1957.997681,1130.644409 1957.997681,1142.977661 1957.997681,1155.310791 
	C1957.997681,1167.310669 1957.997681,1179.310547 1957.997681,1191.310425 
	C1957.997681,1203.643555 1958.019409,1215.976807 1957.991577,1228.309937 
	C1957.964111,1240.470947 1958.120605,1252.642090 1957.862915,1265.602783 
	C1930.574463,1265.602783 1904.720825,1265.602783 1878.665527,1265.602783 
	C1878.665527,1294.914795 1878.665527,1323.350952 1878.665527,1352.539062 
	C1905.209473,1352.539062 1931.092529,1352.539062 1957.997681,1352.539062 
	C1957.997681,1365.514648 1957.997681,1377.750977 1957.997681,1389.987183 
	C1957.997681,1401.987061 1957.997681,1413.986938 1957.997681,1425.986816 
	C1957.997681,1438.319946 1957.997681,1450.653198 1957.997681,1462.986328 
	C1957.997681,1475.319580 1957.997681,1487.652710 1957.997681,1499.985962 
	C1957.997681,1511.985840 1957.997681,1523.985596 1957.997681,1535.985474 
	C1957.997681,1548.318726 1957.997681,1560.651855 1957.997681,1572.985107 
	C1957.997681,1585.318237 1957.997681,1597.651489 1957.997681,1609.984619 
	C1957.997681,1622.317871 1957.997681,1634.651001 1957.997681,1646.984253 
	C1957.997681,1658.984131 1957.954468,1670.984131 1958.009766,1682.983765 
	C1958.065918,1695.144775 1957.751465,1707.326416 1958.226807,1719.280029 
	C1994.856323,1719.280029 2030.063721,1719.280029 2066.170898,1719.280029 
	C2066.170898,1626.830811 2066.170898,1534.915405 2066.170898,1441.000000 
M2909.163818,1310.152954 
	C2878.634521,1338.151123 2858.397705,1372.390991 2847.566895,1412.243042 
	C2835.276123,1457.466431 2834.280518,1503.231201 2844.260254,1548.788574 
	C2859.778320,1619.630249 2899.300293,1672.743286 2964.878662,1705.234131 
	C2993.573730,1719.451416 3024.218506,1726.578613 3056.121826,1728.840210 
	C3109.255371,1732.606812 3159.532715,1722.883179 3206.539551,1697.517090 
	C3212.605225,1694.244019 3218.196045,1690.090698 3224.379639,1686.104736 
	C3211.222412,1660.488281 3198.507324,1635.732910 3185.764893,1610.924316 
	C3150.665771,1632.130859 3113.359863,1641.112305 3073.445801,1640.048828 
	C3021.794434,1638.672485 2981.973389,1611.225342 2963.919189,1562.854370 
	C2947.840576,1519.776733 2946.263184,1475.431885 2958.581299,1431.290527 
	C2968.335205,1396.337036 2988.638184,1368.267700 3023.586182,1355.034424 
	C3074.387695,1335.798218 3122.322998,1340.963501 3164.867432,1377.258179 
	C3168.086670,1380.004761 3171.265137,1382.798950 3174.841309,1385.899170 
	C3190.883301,1356.815674 3206.449463,1328.594604 3222.378906,1299.715210 
	C3217.855957,1296.214111 3213.824707,1292.813477 3209.517090,1289.808594 
	C3192.420654,1277.881470 3173.525879,1269.689209 3153.619385,1263.869873 
	C3113.977783,1252.281128 3073.542725,1250.948608 3032.829834,1255.813110 
	C2986.692627,1261.325806 2945.425537,1278.400269 2909.163818,1310.152954 
M2833.995117,789.376404 
	C2803.889160,776.424805 2783.952393,753.809204 2771.611084,723.905640 
	C2764.034668,705.546997 2760.433594,686.302612 2758.868896,666.646851 
	C2756.438965,636.118835 2758.293945,606.012695 2769.985840,577.278381 
	C2782.040283,547.653503 2801.437500,524.239258 2832.106201,513.269592 
	C2881.984863,495.428925 2929.016357,500.051605 2970.834961,535.255005 
	C2974.316895,538.186218 2977.737061,541.191406 2981.876953,544.757568 
	C2997.893311,515.703918 3013.545898,487.310211 3029.314209,458.706696 
	C3014.600586,445.660004 2998.728027,436.653381 2981.542480,430.159241 
	C2919.148438,406.581329 2855.707764,405.195740 2792.586914,425.517426 
	C2724.559814,447.418610 2679.472412,493.840088 2657.451416,561.796570 
	C2641.363281,611.443298 2640.192627,662.333130 2652.488037,712.689514 
	C2672.704590,795.489197 2723.845703,851.046570 2805.405273,877.212952 
	C2845.426270,890.052734 2886.638184,891.155090 2927.990234,885.294617 
	C2958.574951,880.960022 2987.382080,870.784729 3014.441895,855.869812 
	C3020.164062,852.715881 3025.464355,848.796814 3031.398193,844.945190 
	C3018.223145,819.324646 3005.531738,794.644409 2992.604492,769.505554 
	C2977.098145,779.993774 2961.096680,786.455505 2944.370361,791.016357 
	C2907.997314,800.934326 2871.613770,803.381409 2833.995117,789.376404 
M2376.964111,1607.000366 
	C2376.852295,1493.773682 2376.740479,1380.546875 2376.606689,1267.320190 
	C2376.606445,1267.059326 2376.305420,1266.775024 2376.097412,1266.544434 
	C2375.876221,1266.299194 2375.598389,1266.105103 2375.368652,1265.908691 
	C2339.190918,1265.908691 2303.039551,1265.908691 2266.970215,1265.908691 
	C2265.010742,1280.250732 2265.625488,1712.324219 2267.529541,1719.260620 
	C2303.714600,1719.260620 2339.888184,1719.260620 2376.964600,1719.260620 
	C2376.964600,1682.141968 2376.964600,1645.571289 2376.964111,1607.000366 
M2364.667480,1165.746948 
	C2366.895508,1163.744507 2369.200439,1161.820557 2371.339844,1159.727539 
	C2398.918945,1132.745117 2404.374512,1075.382324 2354.944336,1048.635254 
	C2339.822998,1040.452881 2323.476318,1038.747925 2306.472656,1041.612915 
	C2256.591309,1050.017090 2230.202881,1104.392822 2260.832031,1149.783813 
	C2286.722168,1188.151855 2338.379395,1186.872437 2364.667480,1165.746948 
M932.889465,265.981506 
	C943.319519,270.889099 953.749634,275.796692 963.886292,280.566254 
	C964.978271,279.573486 965.658203,279.228546 965.912964,278.684509 
	C977.747009,253.412292 989.612549,228.154190 1001.251953,202.792343 
	C1002.590759,199.875137 1003.281372,196.349579 1003.186523,193.138138 
	C1002.726074,177.538071 989.176025,163.191849 971.882874,160.340378 
	C957.358826,157.945526 942.811829,161.979965 935.811707,179.632233 
	C927.121277,201.546783 917.355652,223.034592 908.085449,244.720016 
	C906.818115,247.684647 905.730530,250.726105 904.335022,254.308960 
	C913.801086,258.186005 922.636597,261.804749 932.889465,265.981506 
z"/>
<path fill="#172C5B" opacity="1.000000" stroke="none" 
	d="
M532.055664,1246.046631 
	C557.320129,1195.781128 582.604004,1145.525391 607.842407,1095.246704 
	C626.064087,1058.946411 644.220459,1022.613342 662.423523,986.303711 
	C663.751404,983.654968 665.221802,981.077698 666.784241,978.173035 
	C818.430664,1010.728455 947.155029,970.538391 1053.511230,856.570923 
	C1056.310913,857.724243 1059.715576,858.869812 1062.889893,860.471680 
	C1196.811768,928.050415 1282.210938,1034.265503 1311.929565,1181.649292 
	C1358.068115,1410.463501 1223.109131,1628.081787 1011.965454,1698.894531 
	C965.790894,1714.380493 918.329651,1722.207153 869.678467,1722.254517 
	C722.014526,1722.398315 574.350342,1722.306519 426.686279,1722.306641 
	C423.404846,1722.306641 420.123413,1722.306641 415.799255,1722.306641 
	C415.512543,1718.121948 415.061951,1714.610474 415.061432,1711.098999 
	C415.028625,1491.769531 415.099579,1272.439941 415.000824,1053.110474 
	C414.960175,962.796631 414.561523,872.482849 414.327393,782.169067 
	C414.318085,778.578796 414.326202,774.988586 414.326202,769.086365 
	C416.687622,772.120117 417.977448,773.298645 418.688538,774.759033 
	C462.961884,865.680237 533.608032,927.604004 627.087097,964.465149 
	C629.798035,965.534180 632.409729,966.855042 635.940857,968.453857 
	C600.540955,1059.528687 565.370117,1150.014160 529.574585,1241.714233 
	C525.827148,1251.304199 522.704529,1259.679321 519.040649,1268.391113 
	C517.660156,1271.173096 516.820923,1273.618652 515.981750,1276.064087 
	C516.543762,1276.243042 517.105835,1276.422119 517.667908,1276.601074 
	C519.044678,1273.675415 520.421448,1270.749634 522.056030,1267.177246 
	C525.561035,1259.702637 528.808350,1252.874634 532.055664,1246.046631 
z"/>
<path fill="#DCA22F" opacity="1.000000" stroke="none" 
	d="
M638.304504,931.809204 
	C529.556213,887.625549 458.060059,809.775940 427.302155,697.536621 
	C391.776031,567.897461 433.077179,429.388855 540.586853,339.871216 
	C591.864319,297.175140 650.361389,271.028473 716.381531,262.559784 
	C867.625793,243.159042 1000.968750,318.254669 1068.892334,441.608307 
	C1090.669556,481.157135 1103.933228,523.525330 1108.333618,568.520691 
	C1119.415649,681.834961 1084.475952,778.967285 1003.237732,858.378174 
	C950.632568,909.800110 886.446228,940.263428 814.100342,953.102173 
	C803.083008,955.057312 791.559753,954.768860 780.289612,954.547302 
	C764.321411,954.233398 748.346252,953.339844 732.418091,952.118896 
	C700.409546,949.665588 669.222717,943.155090 638.304504,931.809204 
M562.860535,679.767761 
	C615.811340,655.170044 671.328796,647.103882 728.396545,658.804321 
	C823.970398,678.399475 891.081055,734.124695 929.931946,823.713257 
	C931.362000,827.010742 932.731628,830.334412 934.583130,834.721008 
	C940.399536,829.962708 945.432861,825.845032 950.193604,821.950317 
	C924.869995,747.516357 848.978882,661.385620 733.634277,638.866150 
	C641.377625,620.854309 546.113281,651.990173 493.790466,701.527100 
	C496.034149,707.040100 498.344269,712.716370 501.111145,719.514954 
	C520.557922,703.702026 540.139526,690.633118 562.860535,679.767761 
M865.277161,811.806091 
	C873.367676,828.446777 881.458130,845.087463 889.851318,862.350708 
	C895.570435,859.249878 901.612000,855.974182 907.489258,852.787598 
	C890.229614,788.414429 827.326355,708.854065 724.767151,688.437561 
	C639.613770,671.486084 556.159607,705.221802 515.688843,749.380005 
	C519.335327,754.953003 523.051147,760.631958 527.093384,766.809631 
	C530.318420,764.061768 532.548767,762.130249 534.811768,760.237793 
	C590.139709,713.967529 653.296021,696.951111 723.964111,711.683289 
	C784.704102,724.345886 831.231201,758.304565 865.277161,811.806091 
M907.015015,694.014832 
	C938.640625,718.407715 973.878174,734.568970 1013.607544,741.410278 
	C1017.878906,734.710999 1022.010498,728.571716 1023.112122,720.982239 
	C938.548889,704.099304 878.219482,657.728027 849.463928,576.430725 
	C820.600098,494.827576 839.014282,420.704987 894.265503,354.909363 
	C892.506104,353.710388 891.482361,352.852295 890.324158,352.254791 
	C887.367981,350.729828 884.390564,349.233917 881.351929,347.883362 
	C874.176697,344.694244 874.162842,344.733307 868.897095,351.041382 
	C856.666443,365.692810 846.699280,381.778351 838.206238,398.846863 
	C831.462830,412.399017 825.173096,425.947021 829.448914,441.715454 
	C829.617615,442.337616 829.476013,443.042419 829.489014,443.708527 
	C830.109131,475.481506 827.021973,506.833313 819.340088,537.732056 
	C818.258484,542.082703 817.984375,547.055847 818.893921,551.415955 
	C830.913330,609.032654 860.065063,656.223816 907.015015,694.014832 
M934.383850,648.665833 
	C963.669312,672.505615 996.664001,687.402832 1035.280273,691.270081 
	C1037.141724,684.229248 1038.793335,677.981445 1040.570557,671.259033 
	C970.850830,660.855103 921.175232,625.151306 897.887146,559.086182 
	C874.598022,493.018066 891.456909,434.193024 938.844177,382.785248 
	C932.786072,378.561676 927.463562,374.850952 922.218262,371.194061 
	C920.384827,372.700226 919.249207,373.426239 918.368713,374.386261 
	C876.839233,419.662231 860.019409,472.820709 869.122314,533.540649 
	C876.011841,579.496216 898.423828,617.256348 934.383850,648.665833 
M644.743652,364.271851 
	C675.701355,416.268829 679.721436,470.467621 655.716492,525.823669 
	C628.562683,588.441040 561.733643,632.912354 485.910614,626.585815 
	C483.773987,626.407532 481.569092,627.046936 478.567352,627.403503 
	C479.365021,634.572693 480.082153,641.017822 480.926788,648.609192 
	C489.848419,648.853394 498.106079,649.537781 506.307831,649.120972 
	C510.769226,648.894287 515.573486,647.584534 519.474609,645.416626 
	C547.570618,629.802856 577.087097,618.020752 608.566345,611.336243 
	C614.578491,610.059570 619.609192,607.355408 624.329834,603.349243 
	C682.532654,553.955750 707.085876,474.882874 684.807800,400.014252 
	C679.451599,382.013947 671.435608,365.270081 661.348267,349.492584 
	C659.450623,346.524506 657.657959,342.419891 652.966553,344.271271 
	C647.566895,346.402222 642.399048,349.120789 636.612488,351.826355 
	C639.601685,356.393036 641.773376,359.710815 644.743652,364.271851 
M824.657532,844.452698 
	C830.084412,856.457336 835.511292,868.461975 841.140076,880.913269 
	C844.404785,880.006042 847.283386,879.306030 850.094971,878.398132 
	C853.209534,877.392517 856.262695,876.196899 860.435791,874.689026 
	C838.306885,806.671814 794.394897,761.060486 725.716614,742.999023 
	C657.730408,725.119507 597.707031,743.255249 545.115540,791.313782 
	C550.346130,796.890381 554.782654,801.620422 559.622070,806.780029 
	C600.207153,769.608643 646.802795,752.180603 701.171631,759.873718 
	C755.496948,767.560608 796.079956,796.160645 824.657532,844.452698 
M706.229065,591.301697 
	C743.295105,533.691528 754.958069,471.217041 741.543213,404.152161 
	C736.616272,379.520752 727.513489,356.305481 715.175781,334.396179 
	C713.247681,330.972260 711.815063,326.734161 706.490112,327.911652 
	C700.432373,329.251129 694.400452,330.707428 687.759644,332.251953 
	C692.811096,341.789246 697.657837,350.111145 701.701233,358.806641 
	C705.760742,367.537018 709.478149,376.487976 712.500549,385.621887 
	C715.521790,394.752319 717.962341,404.138397 719.799316,413.579376 
	C721.637573,423.026917 722.916870,432.649719 723.515015,442.253387 
	C724.113708,451.866241 724.069336,461.586456 723.380371,471.193207 
	C722.691956,480.792053 721.326416,490.405243 719.390564,499.834106 
	C717.455383,509.259216 714.896057,518.617676 711.781982,527.721924 
	C708.667542,536.827148 704.967773,545.798584 700.713623,554.428833 
	C696.457764,563.062805 691.503357,571.398254 686.292053,579.502441 
	C681.225708,587.381104 675.445190,594.800476 668.870300,603.966003 
	C678.347412,603.966003 685.651672,604.309509 692.892395,603.781555 
	C695.461914,603.594238 698.246704,601.688843 700.261719,599.837097 
	C702.413818,597.859314 703.772766,595.018555 706.229065,591.301697 
M789.735229,528.617676 
	C800.746460,483.230560 801.730896,437.668915 791.892761,391.968964 
	C787.251892,370.411255 780.283142,349.601624 770.837158,329.654907 
	C769.311401,326.433014 768.336121,322.294434 763.718628,322.238983 
	C757.896667,322.169128 752.069458,322.533081 744.937134,322.749573 
	C792.502502,420.449402 788.452576,514.852051 733.171204,607.862793 
	C737.692444,608.892944 741.473083,609.804749 745.276184,610.610779 
	C754.118713,612.484863 754.137024,612.472351 758.632996,604.822021 
	C772.395325,581.404968 782.154175,556.337769 789.735229,528.617676 
M629.491028,401.688354 
	C624.032959,389.604614 618.014893,377.875183 608.440125,367.443542 
	C603.309692,371.173096 598.653076,374.558258 594.206543,377.790680 
	C625.640076,422.874268 631.700806,469.395386 604.406677,516.566406 
	C577.164490,563.647766 533.684753,581.476929 479.405334,576.845459 
	C478.942474,582.852661 478.521423,588.317200 478.008087,594.979126 
	C527.273987,600.611084 568.904175,587.196716 601.714172,551.451538 
	C641.353821,508.265747 649.871765,458.169922 629.491028,401.688354 
M944.367920,584.543945 
	C966.375244,613.664795 995.051941,632.211914 1031.069946,638.946533 
	C1035.785767,639.828308 1040.677979,639.766052 1045.884399,640.171997 
	C1046.474243,633.716553 1046.943115,628.586914 1047.442627,623.120300 
	C996.619385,616.288696 960.480469,590.969543 943.486145,543.112793 
	C926.429016,495.078979 939.639648,452.921051 974.357422,415.932739 
	C969.962402,411.884064 965.931885,408.171204 961.916016,404.471832 
	C916.727112,443.390259 899.773621,521.772034 944.367920,584.543945 
M764.432190,818.524475 
	C700.609558,767.947998 619.675903,787.104065 583.185730,828.122375 
	C587.565796,831.539795 591.901367,834.922485 596.529785,838.533630 
	C629.508118,810.219299 666.744263,799.500244 708.498169,810.472717 
	C750.591248,821.534119 777.761230,849.611877 792.465576,890.642456 
	C798.709961,889.755249 804.133423,888.984680 809.650940,888.200745 
	C804.152710,863.526001 788.809998,839.912903 764.432190,818.524475 
M485.744934,543.286072 
	C487.419159,547.600952 491.358276,546.166016 494.347443,546.337708 
	C563.168518,550.290588 611.308899,478.482269 581.483887,416.281860 
	C578.540161,410.142639 574.363098,404.594788 569.643433,396.971313 
	C565.056824,402.306488 561.728149,406.178528 558.174438,410.312256 
	C575.651245,436.667236 578.725037,464.352570 562.930481,492.201965 
	C546.856384,520.544312 520.602600,530.943848 488.675568,529.355347 
	C487.597443,533.865723 486.679626,537.705322 485.744934,543.286072 
M994.582336,542.223633 
	C976.235413,510.722717 981.133972,481.206604 1003.097961,453.349701 
	C999.785278,448.839020 996.928833,444.949646 994.039124,441.014923 
	C969.321838,461.583527 956.689819,505.660767 975.760681,543.396606 
	C989.980103,571.532837 1025.984863,595.470703 1047.237183,590.435913 
	C1047.237183,588.828003 1047.278809,587.189697 1047.230103,585.554016 
	C1047.020630,578.518250 1044.413208,574.847717 1036.553101,572.984680 
	C1019.140442,568.857300 1005.296265,558.619019 994.582336,542.223633 
M648.945923,859.759583 
	C680.462830,845.764954 717.311646,856.293335 736.277954,882.933838 
	C743.661255,893.304749 746.311768,894.085999 759.227295,890.510925 
	C739.406128,837.785217 667.530579,818.856018 624.081909,856.123169 
	C631.901489,859.734924 638.017822,867.603210 648.945923,859.759583 
M509.530304,476.612274 
	C506.348511,483.361938 503.166748,490.111603 499.391052,498.121155 
	C517.706116,497.515808 529.604126,489.450195 537.133301,475.366272 
	C544.030273,462.464935 544.325439,449.149323 536.197021,434.896179 
	C525.443848,448.165558 517.487610,461.508209 509.530304,476.612274 
M1036.161011,540.948242 
	C1037.100952,541.116028 1038.040771,541.283875 1040.151123,541.660645 
	C1035.698486,521.402283 1029.085449,502.676331 1019.588440,483.535553 
	C1018.181458,485.810120 1017.442383,486.780640 1016.934265,487.859894 
	C1009.179932,504.330048 1014.671387,528.959839 1036.161011,540.948242 
M962.422913,774.618774 
	C965.739563,783.798828 974.238342,784.198914 981.865662,785.851685 
	C983.145081,786.128906 985.281372,785.183655 986.159790,784.102722 
	C989.813477,779.606323 993.137329,774.841736 996.954773,769.671082 
	C981.452698,764.833313 967.432678,760.458069 952.017639,755.647522 
	C955.777893,762.431580 958.787781,767.861877 962.422913,774.618774 
M816.848267,336.155518 
	C805.882629,347.825317 816.587830,357.933075 818.310730,370.536987 
	C827.146301,357.459869 834.814880,346.110016 843.180481,333.728577 
	C837.974060,332.296539 833.786682,331.508545 829.885742,329.986542 
	C824.029114,327.701538 820.371887,329.856598 816.848267,336.155518 
M809.210999,631.594604 
	C811.212463,632.305847 813.213989,633.017090 816.660095,634.241699 
	C810.494263,620.531250 805.052124,608.430115 798.999268,594.970886 
	C795.053650,602.445068 791.669006,608.454102 788.681763,614.654602 
	C786.637268,618.898376 787.803589,622.399902 792.371460,624.341675 
	C797.539978,626.538757 802.723938,628.699280 809.210999,631.594604 
z"/>
<path fill="#192D5C" opacity="1.000000" stroke="none" 
	d="
M1941.051270,577.054749 
	C1949.050293,612.236267 1951.307129,646.935913 1948.095947,682.087036 
	C1938.777588,784.090576 1867.981689,865.264221 1767.276001,884.133728 
	C1726.544556,891.765808 1686.269775,890.606140 1647.593872,874.145386 
	C1612.451538,859.188538 1583.105835,836.955872 1562.281006,801.443115 
	C1559.664429,827.719421 1560.661133,852.344971 1559.479370,877.566895 
	C1525.103516,877.566895 1491.065674,877.566895 1456.592041,877.566895 
	C1456.592041,635.359985 1456.592041,393.500824 1456.592041,150.177704 
	C1491.191650,149.740692 1525.906128,150.080368 1561.199097,149.947617 
	C1561.387085,153.754089 1561.655762,156.662399 1561.656494,159.570770 
	C1561.679565,248.221283 1561.940308,336.873108 1561.494629,425.521393 
	C1561.380981,448.138763 1559.001831,470.744019 1557.704468,493.357208 
	C1557.559937,495.875427 1557.684937,498.409119 1557.684937,501.097534 
	C1558.734985,500.714111 1559.558350,500.677612 1559.772095,500.297913 
	C1580.647705,463.218872 1613.880615,441.350159 1652.143921,426.118652 
	C1684.625610,413.188629 1718.515991,409.999847 1753.241699,413.208923 
	C1782.433105,415.906555 1810.314819,422.945557 1836.217041,436.777588 
	C1888.502808,464.698486 1920.696289,508.720184 1937.741577,564.679321 
	C1938.903931,568.495544 1939.770386,572.401917 1941.051270,577.054749 
M1793.082153,533.893311 
	C1778.501831,520.520996 1761.349609,512.237122 1742.189087,507.648651 
	C1727.136719,504.043945 1711.910522,503.205414 1696.547607,503.757904 
	C1644.188721,505.640839 1597.676758,538.900635 1580.034790,588.331055 
	C1566.389648,626.562866 1565.754883,665.870422 1578.670898,704.111084 
	C1603.359741,777.206909 1671.430908,817.119690 1752.532227,791.667175 
	C1794.199951,778.590271 1817.876831,747.147156 1829.859985,706.618591 
	C1840.887573,669.321533 1840.154419,631.578186 1829.507812,594.243591 
	C1823.007935,571.450256 1811.353516,551.405701 1793.082153,533.893311 
z"/>
<path fill="#192E5C" opacity="1.000000" stroke="none" 
	d="
M3759.839600,1528.000000 
	C3759.839600,1592.241943 3759.839600,1655.483887 3759.839600,1719.270996 
	C3724.376221,1719.270996 3689.848145,1719.270996 3654.077637,1719.270996 
	C3653.944336,1716.005615 3653.678467,1712.514404 3653.677246,1709.023193 
	C3653.653076,1637.694458 3653.893311,1566.364624 3653.546387,1495.037476 
	C3653.402344,1465.400391 3652.519043,1435.723999 3646.196045,1406.558838 
	C3645.351562,1402.664429 3644.355713,1398.780029 3643.098633,1395.001221 
	C3632.270752,1362.449829 3609.910645,1345.846924 3575.545166,1343.908691 
	C3536.205078,1341.689941 3503.963135,1356.739136 3477.289062,1384.417725 
	C3450.723145,1411.984009 3437.749023,1445.701294 3436.290283,1483.733154 
	C3435.575439,1502.372192 3436.019775,1521.057251 3436.012451,1539.721558 
	C3435.990723,1595.717896 3436.005371,1651.714355 3436.005371,1707.710693 
	C3436.005371,1711.321289 3436.005127,1714.931763 3436.005127,1719.178467 
	C3400.815918,1719.178467 3366.343262,1719.178467 3331.223389,1719.178467 
	C3331.223389,1477.238525 3331.223389,1235.410278 3331.223389,993.550720 
	C3338.390625,991.469299 3408.822998,990.679626 3434.248291,992.490784 
	C3434.504639,994.848145 3435.014160,997.351868 3435.015381,999.855774 
	C3435.054932,1087.183472 3435.265869,1174.512085 3434.901123,1261.838257 
	C3434.802246,1285.474854 3432.924805,1309.103271 3431.909912,1332.737427 
	C3431.767578,1336.054810 3431.890381,1339.383667 3431.890381,1344.381226 
	C3433.882812,1341.580688 3435.182861,1339.987061 3436.233154,1338.243042 
	C3467.603760,1286.150391 3513.747559,1258.091431 3574.275635,1253.863525 
	C3597.295898,1252.255615 3620.252197,1253.573608 3642.852295,1258.589844 
	C3695.245117,1270.218628 3727.902100,1303.083374 3743.791748,1353.463501 
	C3750.627441,1375.137573 3753.688232,1397.610229 3755.984863,1420.163452 
	C3759.602783,1455.689087 3760.012207,1491.335083 3759.839600,1528.000000 
z"/>
<path fill="#182D5C" opacity="1.000000" stroke="none" 
	d="
M2409.530273,476.525238 
	C2414.277832,482.970001 2418.564209,488.872589 2423.696289,495.939331 
	C2425.644775,471.879608 2425.531006,448.569672 2426.300293,424.655914 
	C2460.204102,424.655914 2493.650146,424.655914 2527.718994,424.655914 
	C2527.718994,575.409180 2527.718994,726.189880 2527.718994,877.640625 
	C2494.737305,877.640625 2461.611328,877.640625 2427.229736,877.640625 
	C2426.614258,852.909485 2425.998535,828.161255 2425.340332,801.706238 
	C2423.495605,803.665344 2422.572510,804.377075 2421.989990,805.302979 
	C2395.098877,848.049622 2355.738525,873.744141 2307.261230,883.657715 
	C2186.073730,908.440674 2066.590576,833.678528 2041.891968,706.546753 
	C2030.036865,645.525208 2034.488647,585.549988 2061.795898,528.958557 
	C2092.681885,464.950653 2144.624268,428.024902 2214.318848,415.905792 
	C2251.259277,409.482269 2288.018066,410.022522 2323.888428,422.175598 
	C2356.537842,433.237396 2385.782959,449.964203 2409.530273,476.525238 
M2242.671631,794.479248 
	C2259.628662,798.687927 2276.786133,799.870911 2294.212891,798.489014 
	C2346.946045,794.307373 2391.943359,759.041260 2407.853516,708.574158 
	C2417.581055,677.717590 2418.047363,646.117920 2411.703125,614.681641 
	C2398.271729,548.127502 2343.242432,499.344269 2271.592773,503.629761 
	C2218.653320,506.796204 2177.958984,535.463501 2160.115723,586.242859 
	C2144.670654,630.197388 2145.025879,674.826233 2160.872070,718.489319 
	C2174.715576,756.633301 2200.614014,783.461243 2242.671631,794.479248 
z"/>
<path fill="#182D5C" opacity="1.000000" stroke="none" 
	d="
M3518.899414,450.915710 
	C3469.797607,505.408386 3421.172119,559.377808 3371.806885,614.168274 
	C3428.752441,701.583435 3485.728271,789.045227 3543.457031,877.662964 
	C3540.186035,877.946045 3538.081543,878.285095 3535.976807,878.286926 
	C3499.316406,878.319092 3462.655029,878.174683 3425.996582,878.443787 
	C3419.946777,878.488159 3416.501709,876.570862 3413.319092,871.382935 
	C3385.455566,825.963684 3357.020264,780.893250 3329.373535,735.343872 
	C3320.068115,720.013000 3312.541016,703.602844 3304.200928,687.686218 
	C3303.135010,685.651794 3302.065918,683.619263 3300.564209,680.760132 
	C3298.303955,682.731506 3296.262207,684.213074 3294.578857,686.027100 
	C3278.484131,703.368408 3262.567139,720.876709 3246.315186,738.068665 
	C3242.332275,742.281616 3240.910156,746.636902 3240.938965,752.323853 
	C3241.131348,790.316406 3241.038818,828.310486 3241.038574,866.304016 
	C3241.038574,869.916626 3241.038330,873.529236 3241.038330,877.722534 
	C3206.457031,877.722534 3172.670410,877.722534 3138.353271,877.722534 
	C3138.353271,635.689392 3138.353271,393.877228 3138.353271,151.479431 
	C3171.977539,151.479431 3205.475586,151.479431 3240.140869,151.479431 
	C3239.292480,308.981018 3241.303223,466.044952 3238.794434,624.605591 
	C3241.491943,621.891602 3243.582764,620.045166 3245.377197,617.945251 
	C3298.415039,555.875854 3351.505371,493.851074 3404.297852,431.573822 
	C3409.081543,425.930511 3413.770020,423.714752 3421.144287,423.792816 
	C3457.800537,424.181122 3494.463379,423.970123 3531.123779,423.970123 
	C3534.351562,423.970123 3537.579346,423.970123 3543.003906,423.970123 
	C3534.219971,433.792877 3526.797852,442.092682 3518.899414,450.915710 
z"/>
<path fill="#192D5C" opacity="1.000000" stroke="none" 
	d="
M1607.451660,1255.432617 
	C1673.774536,1247.231812 1757.808838,1263.689453 1784.856812,1285.829102 
	C1772.333252,1313.469849 1759.729614,1341.287476 1746.728516,1369.982422 
	C1733.304321,1358.905273 1718.384521,1351.842651 1702.385498,1347.146973 
	C1671.889038,1338.196045 1640.957397,1335.680542 1609.597778,1341.925781 
	C1605.390869,1342.763550 1601.257446,1344.197998 1597.249390,1345.764038 
	C1583.060059,1351.307495 1573.973389,1361.295532 1572.580811,1376.786743 
	C1571.180908,1392.358276 1575.701782,1406.160278 1589.031006,1415.261475 
	C1597.489014,1421.036621 1606.697998,1426.062988 1616.184937,1429.908447 
	C1637.129517,1438.397949 1658.466187,1445.919434 1679.636597,1453.852783 
	C1705.587402,1463.577393 1730.527344,1475.307739 1753.278076,1491.311157 
	C1773.802368,1505.748657 1791.295654,1522.921753 1799.955078,1547.122314 
	C1812.146729,1581.193970 1810.999268,1615.180176 1796.851440,1648.429077 
	C1788.550781,1667.936646 1774.561035,1682.969360 1757.076782,1694.838867 
	C1732.382324,1711.603149 1704.986328,1721.490967 1675.678711,1725.867432 
	C1611.670532,1735.425903 1549.629883,1726.091553 1489.013672,1705.029663 
	C1477.456665,1701.013916 1466.203979,1696.021484 1456.415649,1687.556152 
	C1468.192383,1659.752930 1479.832275,1632.272827 1491.856934,1603.884277 
	C1494.550903,1605.482056 1496.738892,1606.682861 1498.829712,1608.034180 
	C1545.719482,1638.342896 1597.215698,1649.303101 1652.317139,1643.556274 
	C1662.685547,1642.474854 1673.410889,1639.375854 1682.733032,1634.725220 
	C1710.050537,1621.096802 1711.749634,1584.699097 1685.598999,1569.044312 
	C1671.429565,1560.561768 1655.801392,1554.371704 1640.479614,1547.991455 
	C1615.627563,1537.642456 1590.163452,1528.717285 1565.561890,1517.826050 
	C1542.649414,1507.682495 1521.900146,1493.720215 1503.196777,1476.842896 
	C1479.701416,1455.641357 1467.730469,1429.066284 1465.767090,1397.751831 
	C1464.846558,1383.070190 1465.229736,1368.433594 1468.773804,1354.057495 
	C1475.338989,1327.425049 1490.116211,1306.296997 1512.014648,1289.998169 
	C1534.927856,1272.944458 1560.971558,1263.385864 1588.768433,1258.119629 
	C1594.647705,1257.005615 1600.621216,1256.390015 1607.451660,1255.432617 
z"/>
<path fill="#192D5C" opacity="1.000000" stroke="none" 
	d="
M2564.580078,1239.977051 
	C2564.580078,1186.342773 2564.580078,1133.705322 2564.580078,1080.129883 
	C2600.478516,1072.206055 2636.058838,1064.352417 2672.796875,1056.243286 
	C2672.796875,1126.067627 2672.796875,1194.885132 2672.796875,1264.679199 
	C2685.166748,1266.018555 2696.705811,1265.155518 2708.187012,1265.312012 
	C2719.516602,1265.466675 2730.850342,1265.345703 2742.182129,1265.345703 
	C2753.753662,1265.345703 2765.325195,1265.345825 2777.358154,1265.345825 
	C2777.358154,1294.588379 2777.358154,1322.772217 2777.358154,1352.198242 
	C2742.795898,1352.198242 2708.362793,1352.198242 2672.935547,1352.198242 
	C2672.935547,1475.275513 2672.935547,1597.118042 2672.935547,1719.387695 
	C2636.685791,1719.387695 2601.453613,1719.387695 2564.765625,1719.387695 
	C2564.375244,1688.903809 2564.637207,1658.409546 2564.590332,1627.922241 
	C2564.543213,1597.259644 2564.580078,1566.597168 2564.580078,1535.934570 
	C2564.580078,1505.605347 2564.580078,1475.276123 2564.580078,1444.946899 
	C2564.580078,1414.383667 2564.580078,1383.820312 2564.580078,1352.486816 
	C2537.625732,1352.486816 2511.731201,1352.486816 2485.213867,1352.486816 
	C2485.213867,1323.250732 2485.213867,1294.794434 2485.213867,1265.432861 
	C2511.501221,1265.432861 2537.368164,1265.432861 2564.580078,1265.432861 
	C2564.580078,1256.705688 2564.580078,1248.839844 2564.580078,1239.977051 
z"/>
<path fill="#182D5C" opacity="1.000000" stroke="none" 
	d="
M2066.170898,1442.000000 
	C2066.170898,1534.915405 2066.170898,1626.830811 2066.170898,1719.280029 
	C2030.063721,1719.280029 1994.856323,1719.280029 1958.226807,1719.280029 
	C1957.751465,1707.326416 1958.065918,1695.144775 1958.009766,1682.983765 
	C1957.954468,1670.984131 1957.997681,1658.984131 1957.997681,1646.984253 
	C1957.997681,1634.651001 1957.997681,1622.317871 1957.997681,1609.984619 
	C1957.997681,1597.651489 1957.997681,1585.318237 1957.997681,1572.985107 
	C1957.997681,1560.651855 1957.997681,1548.318726 1957.997681,1535.985474 
	C1957.997681,1523.985596 1957.997681,1511.985840 1957.997681,1499.985962 
	C1957.997681,1487.652710 1957.997681,1475.319580 1957.997681,1462.986328 
	C1957.997681,1450.653198 1957.997681,1438.319946 1957.997681,1425.986816 
	C1957.997681,1413.986938 1957.997681,1401.987061 1957.997681,1389.987183 
	C1957.997681,1377.750977 1957.997681,1365.514648 1957.997681,1352.539062 
	C1931.092529,1352.539062 1905.209473,1352.539062 1878.665527,1352.539062 
	C1878.665527,1323.350952 1878.665527,1294.914795 1878.665527,1265.602783 
	C1904.720825,1265.602783 1930.574463,1265.602783 1957.862915,1265.602783 
	C1958.120605,1252.642090 1957.964111,1240.470947 1957.991577,1228.309937 
	C1958.019409,1215.976807 1957.997681,1203.643555 1957.997681,1191.310425 
	C1957.997681,1179.310547 1957.997681,1167.310669 1957.997681,1155.310791 
	C1957.997681,1142.977661 1957.997681,1130.644409 1957.997681,1118.311279 
	C1957.997681,1105.996094 1957.997681,1093.680786 1957.997681,1080.130981 
	C1993.716797,1072.237427 2029.301392,1064.373535 2066.069824,1056.248047 
	C2066.069824,1126.025757 2066.069824,1195.124146 2066.069824,1265.392334 
	C2101.594238,1265.392334 2136.059082,1265.392334 2170.956543,1265.392334 
	C2170.956543,1294.757568 2170.956543,1322.943237 2170.956543,1352.220459 
	C2136.121338,1352.220459 2101.659668,1352.220459 2066.170898,1352.220459 
	C2066.170898,1382.532593 2066.170898,1411.766235 2066.170898,1442.000000 
z"/>
<path fill="#192D5C" opacity="1.000000" stroke="none" 
	d="
M2909.692383,1309.679199 
	C2945.425537,1278.400269 2986.692627,1261.325806 3032.829834,1255.813110 
	C3073.542725,1250.948608 3113.977783,1252.281128 3153.619385,1263.869873 
	C3173.525879,1269.689209 3192.420654,1277.881470 3209.517090,1289.808594 
	C3213.824707,1292.813477 3217.855957,1296.214111 3222.378906,1299.715210 
	C3206.449463,1328.594604 3190.883301,1356.815674 3174.841309,1385.899170 
	C3171.265137,1382.798950 3168.086670,1380.004761 3164.867432,1377.258179 
	C3122.322998,1340.963501 3074.387695,1335.798218 3023.586182,1355.034424 
	C2988.638184,1368.267700 2968.335205,1396.337036 2958.581299,1431.290527 
	C2946.263184,1475.431885 2947.840576,1519.776733 2963.919189,1562.854370 
	C2981.973389,1611.225342 3021.794434,1638.672485 3073.445801,1640.048828 
	C3113.359863,1641.112305 3150.665771,1632.130859 3185.764893,1610.924316 
	C3198.507324,1635.732910 3211.222412,1660.488281 3224.379639,1686.104736 
	C3218.196045,1690.090698 3212.605225,1694.244019 3206.539551,1697.517090 
	C3159.532715,1722.883179 3109.255371,1732.606812 3056.121826,1728.840210 
	C3024.218506,1726.578613 2993.573730,1719.451416 2964.878662,1705.234131 
	C2899.300293,1672.743286 2859.778320,1619.630249 2844.260254,1548.788574 
	C2834.280518,1503.231201 2835.276123,1457.466431 2847.566895,1412.243042 
	C2858.397705,1372.390991 2878.634521,1338.151123 2909.692383,1309.679199 
z"/>
<path fill="#192D5C" opacity="1.000000" stroke="none" 
	d="
M2834.714844,789.650146 
	C2871.613770,803.381409 2907.997314,800.934326 2944.370361,791.016357 
	C2961.096680,786.455505 2977.098145,779.993774 2992.604492,769.505554 
	C3005.531738,794.644409 3018.223145,819.324646 3031.398193,844.945190 
	C3025.464355,848.796814 3020.164062,852.715881 3014.441895,855.869812 
	C2987.382080,870.784729 2958.574951,880.960022 2927.990234,885.294617 
	C2886.638184,891.155090 2845.426270,890.052734 2805.405273,877.212952 
	C2723.845703,851.046570 2672.704590,795.489197 2652.488037,712.689514 
	C2640.192627,662.333130 2641.363281,611.443298 2657.451416,561.796570 
	C2679.472412,493.840088 2724.559814,447.418610 2792.586914,425.517426 
	C2855.707764,405.195740 2919.148438,406.581329 2981.542480,430.159241 
	C2998.728027,436.653381 3014.600586,445.660004 3029.314209,458.706696 
	C3013.545898,487.310211 2997.893311,515.703918 2981.876953,544.757568 
	C2977.737061,541.191406 2974.316895,538.186218 2970.834961,535.255005 
	C2929.016357,500.051605 2881.984863,495.428925 2832.106201,513.269592 
	C2801.437500,524.239258 2782.040283,547.653503 2769.985840,577.278381 
	C2758.293945,606.012695 2756.438965,636.118835 2758.868896,666.646851 
	C2760.433594,686.302612 2764.034668,705.546997 2771.611084,723.905640 
	C2783.952393,753.809204 2803.889160,776.424805 2834.714844,789.650146 
z"/>
<path fill="#182D5C" opacity="1.000000" stroke="none" 
	d="
M2376.964355,1608.000488 
	C2376.964600,1645.571289 2376.964600,1682.141968 2376.964600,1719.260620 
	C2339.888184,1719.260620 2303.714600,1719.260620 2267.529541,1719.260620 
	C2265.625488,1712.324219 2265.010742,1280.250732 2266.970215,1265.908691 
	C2303.039551,1265.908691 2339.190918,1265.908691 2375.368652,1265.908691 
	C2375.598389,1266.105103 2375.876221,1266.299194 2376.097412,1266.544434 
	C2376.305420,1266.775024 2376.606445,1267.059326 2376.606689,1267.320190 
	C2376.740479,1380.546875 2376.852295,1493.773682 2376.964355,1608.000488 
z"/>
<path fill="#192E5C" opacity="1.000000" stroke="none" 
	d="
M2364.079102,1166.159912 
	C2338.379395,1186.872437 2286.722168,1188.151855 2260.832031,1149.783813 
	C2230.202881,1104.392822 2256.591309,1050.017090 2306.472656,1041.612915 
	C2323.476318,1038.747925 2339.822998,1040.452881 2354.944336,1048.635254 
	C2404.374512,1075.382324 2398.918945,1132.745117 2371.339844,1159.727539 
	C2369.200439,1161.820557 2366.895508,1163.744507 2364.079102,1166.159912 
z"/>
<path fill="#1A2E5D" opacity="1.000000" stroke="none" 
	d="
M932.180786,265.702515 
	C922.636597,261.804749 913.801086,258.186005 904.335022,254.308960 
	C905.730530,250.726105 906.818115,247.684647 908.085449,244.720016 
	C917.355652,223.034592 927.121277,201.546783 935.811707,179.632233 
	C942.811829,161.979965 957.358826,157.945526 971.882874,160.340378 
	C989.176025,163.191849 1002.726074,177.538071 1003.186523,193.138138 
	C1003.281372,196.349579 1002.590759,199.875137 1001.251953,202.792343 
	C989.612549,228.154190 977.747009,253.412292 965.912964,278.684509 
	C965.658203,279.228546 964.978271,279.573486 963.886292,280.566254 
	C953.749634,275.796692 943.319519,270.889099 932.180786,265.702515 
z"/>
<path fill="#B7BCCB" opacity="1.000000" stroke="none" 
	d="
M519.581909,1268.054565 
	C522.704529,1259.679321 525.827148,1251.304199 529.443665,1242.435669 
	C530.271362,1243.128540 530.605164,1244.314575 531.497314,1245.773682 
	C528.808350,1252.874634 525.561035,1259.702637 521.500610,1267.221069 
	C520.318848,1267.959229 519.950378,1268.006836 519.581909,1268.054565 
z"/>
<path fill="#6D7796" opacity="1.000000" stroke="none" 
	d="
M519.040649,1268.391113 
	C519.950378,1268.006836 520.318848,1267.959229 521.242798,1267.867676 
	C520.421448,1270.749634 519.044678,1273.675415 517.667908,1276.601074 
	C517.105835,1276.422119 516.543762,1276.243042 515.981750,1276.064087 
	C516.820923,1273.618652 517.660156,1271.173096 519.040649,1268.391113 
z"/>
<path fill="#FEFDF9" opacity="1.000000" stroke="none" 
	d="
M562.164978,680.055420 
	C540.139526,690.633118 520.557922,703.702026 501.111145,719.514954 
	C498.344269,712.716370 496.034149,707.040100 493.790466,701.527100 
	C546.113281,651.990173 641.377625,620.854309 733.634277,638.866150 
	C848.978882,661.385620 924.869995,747.516357 950.193604,821.950317 
	C945.432861,825.845032 940.399536,829.962708 934.583130,834.721008 
	C932.731628,830.334412 931.362000,827.010742 929.931946,823.713257 
	C891.081055,734.124695 823.970398,678.399475 728.396545,658.804321 
	C671.328796,647.103882 615.811340,655.170044 562.164978,680.055420 
z"/>
<path fill="#FEFDFA" opacity="1.000000" stroke="none" 
	d="
M864.871582,811.200317 
	C831.231201,758.304565 784.704102,724.345886 723.964111,711.683289 
	C653.296021,696.951111 590.139709,713.967529 534.811768,760.237793 
	C532.548767,762.130249 530.318420,764.061768 527.093384,766.809631 
	C523.051147,760.631958 519.335327,754.953003 515.688843,749.380005 
	C556.159607,705.221802 639.613770,671.486084 724.767151,688.437561 
	C827.326355,708.854065 890.229614,788.414429 907.489258,852.787598 
	C901.612000,855.974182 895.570435,859.249878 889.851318,862.350708 
	C881.458130,845.087463 873.367676,828.446777 864.871582,811.200317 
z"/>
<path fill="#FEFCF9" opacity="1.000000" stroke="none" 
	d="
M906.460693,693.567383 
	C860.065063,656.223816 830.913330,609.032654 818.893921,551.415955 
	C817.984375,547.055847 818.258484,542.082703 819.340088,537.732056 
	C827.021973,506.833313 830.109131,475.481506 829.489014,443.708527 
	C829.476013,443.042419 829.617615,442.337616 829.448914,441.715454 
	C825.173096,425.947021 831.462830,412.399017 838.206238,398.846863 
	C846.699280,381.778351 856.666443,365.692810 868.897095,351.041382 
	C874.162842,344.733307 874.176697,344.694244 881.351929,347.883362 
	C884.390564,349.233917 887.367981,350.729828 890.324158,352.254791 
	C891.482361,352.852295 892.506104,353.710388 894.265503,354.909363 
	C839.014282,420.704987 820.600098,494.827576 849.463928,576.430725 
	C878.219482,657.728027 938.548889,704.099304 1023.112122,720.982239 
	C1022.010498,728.571716 1017.878906,734.710999 1013.607544,741.410278 
	C973.878174,734.568970 938.640625,718.407715 906.460693,693.567383 
z"/>
<path fill="#FEFCF9" opacity="1.000000" stroke="none" 
	d="
M933.838257,648.211548 
	C898.423828,617.256348 876.011841,579.496216 869.122314,533.540649 
	C860.019409,472.820709 876.839233,419.662231 918.368713,374.386261 
	C919.249207,373.426239 920.384827,372.700226 922.218262,371.194061 
	C927.463562,374.850952 932.786072,378.561676 938.844177,382.785248 
	C891.456909,434.193024 874.598022,493.018066 897.887146,559.086182 
	C921.175232,625.151306 970.850830,660.855103 1040.570557,671.259033 
	C1038.793335,677.981445 1037.141724,684.229248 1035.280273,691.270081 
	C996.664001,687.402832 963.669312,672.505615 933.838257,648.211548 
z"/>
<path fill="#FEFCF8" opacity="1.000000" stroke="none" 
	d="
M644.344360,363.650208 
	C641.773376,359.710815 639.601685,356.393036 636.612488,351.826355 
	C642.399048,349.120789 647.566895,346.402222 652.966553,344.271271 
	C657.657959,342.419891 659.450623,346.524506 661.348267,349.492584 
	C671.435608,365.270081 679.451599,382.013947 684.807800,400.014252 
	C707.085876,474.882874 682.532654,553.955750 624.329834,603.349243 
	C619.609192,607.355408 614.578491,610.059570 608.566345,611.336243 
	C577.087097,618.020752 547.570618,629.802856 519.474609,645.416626 
	C515.573486,647.584534 510.769226,648.894287 506.307831,649.120972 
	C498.106079,649.537781 489.848419,648.853394 480.926788,648.609192 
	C480.082153,641.017822 479.365021,634.572693 478.567352,627.403503 
	C481.569092,627.046936 483.773987,626.407532 485.910614,626.585815 
	C561.733643,632.912354 628.562683,588.441040 655.716492,525.823669 
	C679.721436,470.467621 675.701355,416.268829 644.344360,363.650208 
z"/>
<path fill="#FEFDF9" opacity="1.000000" stroke="none" 
	d="
M824.312988,843.803955 
	C796.079956,796.160645 755.496948,767.560608 701.171631,759.873718 
	C646.802795,752.180603 600.207153,769.608643 559.622070,806.780029 
	C554.782654,801.620422 550.346130,796.890381 545.115540,791.313782 
	C597.707031,743.255249 657.730408,725.119507 725.716614,742.999023 
	C794.394897,761.060486 838.306885,806.671814 860.435791,874.689026 
	C856.262695,876.196899 853.209534,877.392517 850.094971,878.398132 
	C847.283386,879.306030 844.404785,880.006042 841.140076,880.913269 
	C835.511292,868.461975 830.084412,856.457336 824.312988,843.803955 
z"/>
<path fill="#FEFCF9" opacity="1.000000" stroke="none" 
	d="
M705.853516,591.928101 
	C703.772766,595.018555 702.413818,597.859314 700.261719,599.837097 
	C698.246704,601.688843 695.461914,603.594238 692.892395,603.781555 
	C685.651672,604.309509 678.347412,603.966003 668.870300,603.966003 
	C675.445190,594.800476 681.225708,587.381104 686.292053,579.502441 
	C691.503357,571.398254 696.457764,563.062805 700.713623,554.428833 
	C704.967773,545.798584 708.667542,536.827148 711.781982,527.721924 
	C714.896057,518.617676 717.455383,509.259216 719.390564,499.834106 
	C721.326416,490.405243 722.691956,480.792053 723.380371,471.193207 
	C724.069336,461.586456 724.113708,451.866241 723.515015,442.253387 
	C722.916870,432.649719 721.637573,423.026917 719.799316,413.579376 
	C717.962341,404.138397 715.521790,394.752319 712.500549,385.621887 
	C709.478149,376.487976 705.760742,367.537018 701.701233,358.806641 
	C697.657837,350.111145 692.811096,341.789246 687.759644,332.251953 
	C694.400452,330.707428 700.432373,329.251129 706.490112,327.911652 
	C711.815063,326.734161 713.247681,330.972260 715.175781,334.396179 
	C727.513489,356.305481 736.616272,379.520752 741.543213,404.152161 
	C754.958069,471.217041 743.295105,533.691528 705.853516,591.928101 
z"/>
<path fill="#FEFCF9" opacity="1.000000" stroke="none" 
	d="
M789.541504,529.416565 
	C782.154175,556.337769 772.395325,581.404968 758.632996,604.822021 
	C754.137024,612.472351 754.118713,612.484863 745.276184,610.610779 
	C741.473083,609.804749 737.692444,608.892944 733.171204,607.862793 
	C788.452576,514.852051 792.502502,420.449402 744.937134,322.749573 
	C752.069458,322.533081 757.896667,322.169128 763.718628,322.238983 
	C768.336121,322.294434 769.311401,326.433014 770.837158,329.654907 
	C780.283142,349.601624 787.251892,370.411255 791.892761,391.968964 
	C801.730896,437.668915 800.746460,483.230560 789.541504,529.416565 
z"/>
<path fill="#FDFCF8" opacity="1.000000" stroke="none" 
	d="
M629.742065,402.416321 
	C649.871765,458.169922 641.353821,508.265747 601.714172,551.451538 
	C568.904175,587.196716 527.273987,600.611084 478.008087,594.979126 
	C478.521423,588.317200 478.942474,582.852661 479.405334,576.845459 
	C533.684753,581.476929 577.164490,563.647766 604.406677,516.566406 
	C631.700806,469.395386 625.640076,422.874268 594.206543,377.790680 
	C598.653076,374.558258 603.309692,371.173096 608.440125,367.443542 
	C618.014893,377.875183 624.032959,389.604614 629.742065,402.416321 
z"/>
<path fill="#FDFCF8" opacity="1.000000" stroke="none" 
	d="
M943.982178,583.941895 
	C899.773621,521.772034 916.727112,443.390259 961.916016,404.471832 
	C965.931885,408.171204 969.962402,411.884064 974.357422,415.932739 
	C939.639648,452.921051 926.429016,495.078979 943.486145,543.112793 
	C960.480469,590.969543 996.619385,616.288696 1047.442627,623.120300 
	C1046.943115,628.586914 1046.474243,633.716553 1045.884399,640.171997 
	C1040.677979,639.766052 1035.785767,639.828308 1031.069946,638.946533 
	C995.051941,632.211914 966.375244,613.664795 943.982178,583.941895 
z"/>
<path fill="#FDFCF8" opacity="1.000000" stroke="none" 
	d="
M764.977478,818.981445 
	C788.809998,839.912903 804.152710,863.526001 809.650940,888.200745 
	C804.133423,888.984680 798.709961,889.755249 792.465576,890.642456 
	C777.761230,849.611877 750.591248,821.534119 708.498169,810.472717 
	C666.744263,799.500244 629.508118,810.219299 596.529785,838.533630 
	C591.901367,834.922485 587.565796,831.539795 583.185730,828.122375 
	C619.675903,787.104065 700.609558,767.947998 764.977478,818.981445 
z"/>
<path fill="#FDFCF7" opacity="1.000000" stroke="none" 
	d="
M485.753357,542.415527 
	C486.679626,537.705322 487.597443,533.865723 488.675568,529.355347 
	C520.602600,530.943848 546.856384,520.544312 562.930481,492.201965 
	C578.725037,464.352570 575.651245,436.667236 558.174438,410.312256 
	C561.728149,406.178528 565.056824,402.306488 569.643433,396.971313 
	C574.363098,404.594788 578.540161,410.142639 581.483887,416.281860 
	C611.308899,478.482269 563.168518,550.290588 494.347443,546.337708 
	C491.358276,546.166016 487.419159,547.600952 485.753357,542.415527 
z"/>
<path fill="#FDFBF7" opacity="1.000000" stroke="none" 
	d="
M994.994995,542.829773 
	C1005.296265,558.619019 1019.140442,568.857300 1036.553101,572.984680 
	C1044.413208,574.847717 1047.020630,578.518250 1047.230103,585.554016 
	C1047.278809,587.189697 1047.237183,588.828003 1047.237183,590.435913 
	C1025.984863,595.470703 989.980103,571.532837 975.760681,543.396606 
	C956.689819,505.660767 969.321838,461.583527 994.039124,441.014923 
	C996.928833,444.949646 999.785278,448.839020 1003.097961,453.349701 
	C981.133972,481.206604 976.235413,510.722717 994.994995,542.829773 
z"/>
<path fill="#FDFBF7" opacity="1.000000" stroke="none" 
	d="
M648.224487,860.040527 
	C638.017822,867.603210 631.901489,859.734924 624.081909,856.123169 
	C667.530579,818.856018 739.406128,837.785217 759.227295,890.510925 
	C746.311768,894.085999 743.661255,893.304749 736.277954,882.933838 
	C717.311646,856.293335 680.462830,845.764954 648.224487,860.040527 
z"/>
<path fill="#FDFBF7" opacity="1.000000" stroke="none" 
	d="
M509.844360,475.939026 
	C517.487610,461.508209 525.443848,448.165558 536.197021,434.896179 
	C544.325439,449.149323 544.030273,462.464935 537.133301,475.366272 
	C529.604126,489.450195 517.706116,497.515808 499.391052,498.121155 
	C503.166748,490.111603 506.348511,483.361938 509.844360,475.939026 
z"/>
<path fill="#FDFAF5" opacity="1.000000" stroke="none" 
	d="
M1035.516846,540.607178 
	C1014.671387,528.959839 1009.179932,504.330048 1016.934265,487.859894 
	C1017.442383,486.780640 1018.181458,485.810120 1019.588440,483.535553 
	C1029.085449,502.676331 1035.698486,521.402283 1040.151123,541.660645 
	C1038.040771,541.283875 1037.100952,541.116028 1035.516846,540.607178 
z"/>
<path fill="#FDFAF5" opacity="1.000000" stroke="none" 
	d="
M962.110229,773.955444 
	C958.787781,767.861877 955.777893,762.431580 952.017639,755.647522 
	C967.432678,760.458069 981.452698,764.833313 996.954773,769.671082 
	C993.137329,774.841736 989.813477,779.606323 986.159790,784.102722 
	C985.281372,785.183655 983.145081,786.128906 981.865662,785.851685 
	C974.238342,784.198914 965.739563,783.798828 962.110229,773.955444 
z"/>
<path fill="#FDFAF5" opacity="1.000000" stroke="none" 
	d="
M817.288452,335.555481 
	C820.371887,329.856598 824.029114,327.701538 829.885742,329.986542 
	C833.786682,331.508545 837.974060,332.296539 843.180481,333.728577 
	C834.814880,346.110016 827.146301,357.459869 818.310730,370.536987 
	C816.587830,357.933075 805.882629,347.825317 817.288452,335.555481 
z"/>
<path fill="#FCFAF3" opacity="1.000000" stroke="none" 
	d="
M808.556152,631.235107 
	C802.723938,628.699280 797.539978,626.538757 792.371460,624.341675 
	C787.803589,622.399902 786.637268,618.898376 788.681763,614.654602 
	C791.669006,608.454102 795.053650,602.445068 798.999268,594.970886 
	C805.052124,608.430115 810.494263,620.531250 816.660095,634.241699 
	C813.213989,633.017090 811.212463,632.305847 808.556152,631.235107 
z"/>
<path fill="#FEFEFE" opacity="1.000000" stroke="none" 
	d="
M1793.613647,534.359985 
	C1811.353516,551.405701 1823.007935,571.450256 1829.507812,594.243591 
	C1840.154419,631.578186 1840.887573,669.321533 1829.859985,706.618591 
	C1817.876831,747.147156 1794.199951,778.590271 1752.532227,791.667175 
	C1671.430908,817.119690 1603.359741,777.206909 1578.670898,704.111084 
	C1565.754883,665.870422 1566.389648,626.562866 1580.034790,588.331055 
	C1597.676758,538.900635 1644.188721,505.640839 1696.547607,503.757904 
	C1711.910522,503.205414 1727.136719,504.043945 1742.189087,507.648651 
	C1761.349609,512.237122 1778.501831,520.520996 1793.613647,534.359985 
z"/>
<path fill="#FEFEFE" opacity="1.000000" stroke="none" 
	d="
M2241.868652,794.298218 
	C2200.614014,783.461243 2174.715576,756.633301 2160.872070,718.489319 
	C2145.025879,674.826233 2144.670654,630.197388 2160.115723,586.242859 
	C2177.958984,535.463501 2218.653320,506.796204 2271.592773,503.629761 
	C2343.242432,499.344269 2398.271729,548.127502 2411.703125,614.681641 
	C2418.047363,646.117920 2417.581055,677.717590 2407.853516,708.574158 
	C2391.943359,759.041260 2346.946045,794.307373 2294.212891,798.489014 
	C2276.786133,799.870911 2259.628662,798.687927 2241.868652,794.298218 
z"/>
</svg>